<svg width="96" height="96" viewBox="0 0 96 96" fill="none" xmlns="http://www.w3.org/2000/svg">
<path d="M44.9469 0.0863953C33.3236 0.752769 22.4201 5.7106 14.0492 14.0803C4.93189 23.1696 0 35.0311 0 47.8788C0 63.4987 7.09126 77.4126 19.9142 87.0084C25.9924 91.5397 34.4966 94.8449 42.4943 95.7512C46.7064 96.2577 53.4244 95.9645 57.5032 95.1115C73.9784 91.673 87.3079 80.238 93.0662 64.5649C99.5976 46.8126 95.0123 26.7947 81.4163 13.6271C78.4305 10.7484 76.4044 9.1491 73.4186 7.28325C64.7011 1.89893 55.2639 -0.500015 44.9469 0.0863953ZM54.944 1.55242C60.9689 2.43204 67.3137 4.67106 72.2189 7.70972C78.7237 11.708 85.0152 17.9986 88.4009 23.836L89.1207 25.1154H48.0393C25.4326 25.1154 6.95797 25.0621 6.95797 24.9822C6.95797 24.9022 7.33119 24.2358 7.81106 23.4628C9.38393 20.8506 12.2098 17.2522 14.5824 14.8799C25.2726 4.19127 39.855 -0.633293 54.944 1.55242ZM90.5069 27.8076C91.5466 30.0733 92.8529 33.5384 93.1728 34.7646L93.3328 35.5109H48.0127C23.0866 35.5109 2.69255 35.4043 2.69255 35.2977C2.69255 34.7113 4.42538 30.0466 5.41175 27.9675L6.50477 25.6486H48.0127H89.5206L90.5069 27.8076ZM93.706 36.7637C94.0259 37.9099 94.6657 41.8015 94.8257 43.774L95.0123 45.9064H48.0127H1.01304L1.17299 43.5074C1.33294 41.455 1.9461 37.6966 2.29266 36.6304C2.37264 36.3905 11.7566 36.3106 47.986 36.3106C91.1734 36.3106 93.5727 36.3372 93.706 36.7637ZM94.9323 49.2915C94.9323 50.571 94.799 52.6501 94.6391 53.9562L94.3192 56.3018H47.986H1.67951L1.51956 55.5555C1.33294 54.7825 0.826426 48.9184 0.826426 47.6922V46.9726H47.8794H94.9323V49.2915ZM93.4661 59.9535C93.1195 61.2596 92.5063 63.2588 92.0798 64.4316L91.28 66.564L47.9593 66.6439L4.61199 66.6973L3.41234 63.0455C2.74587 61.0197 2.15937 58.9673 2.05273 58.4875L1.91944 57.6346H48.0127H94.1059L93.4661 59.9535ZM90.4003 68.4831C90.4003 68.7764 87.9477 72.9345 86.5881 74.907L85.2818 76.8262H47.986H10.6902L9.30395 74.827C7.94435 72.8812 5.62503 68.9096 5.62503 68.4831C5.62503 68.3765 24.6861 68.2966 48.0127 68.2966C71.3392 68.2966 90.4003 68.3765 90.4003 68.4831ZM80.8298 81.6774C79.4435 83.0101 77.3641 84.796 76.2178 85.649L74.0851 87.2216H47.986H21.8603L19.8076 85.7023C18.6879 84.876 16.6085 83.0634 15.2222 81.704L12.6896 79.2518H48.0127H83.3357L80.8298 81.6774ZM67.7136 90.6868C65.7675 91.6997 61.5287 93.139 58.5429 93.8321C54.5174 94.765 51.265 95.0315 46.3332 94.8716C39.9084 94.685 35.3763 93.7254 29.7513 91.3531C28.1518 90.6868 26.7922 90.1004 26.7389 90.0204C26.6589 89.9404 36.1761 89.8871 47.906 89.8871L69.2065 89.9138L67.7136 90.6868Z" fill="#FF7A2A"/>
</svg>
